#!OML:ASF H:\Terrain\Patient Classification 1\Walking\liu\liu.ASF
:FULLY-SPECIFIED
:DEGREES
206
root 9.39754 16.855 10.0638 5.64141 -5.33468 0.811156
lowerback -4.75277 2.58678 -3.64098
upperback -1.3429 3.61055 0.546055
thorax 1.01791 1.80504 2.79185
lowerneck -23.6166 -4.29746 -12.6068
upperneck 26.0008 -5.0192 11.9355
head 13.3466 -1.86142 5.97045
rclavicle -2.27018e-014 1.0635e-014
rhumerus -25.7105 19.8035 -85.9965
rradius 44.9795
rwrist -21.4519
rhand -32.2577 -28.4376
rfingers 7.12502
rthumb -5.49755 -58.3463
lclavicle -2.27018e-014 1.0635e-014
lhumerus -51.7706 15.7021 66.3728
lradius 4.96187
lwrist -29.8687
lhand -12.0692 -21.3587
lfingers 7.12502
lthumb 13.9903 8.15055
rfemur 5.81722 -4.328 17.1501
rtibia 43.4531
rfoot 21.9559 1.82749
rtoes -15.5688
lfemur -33.7916 7.76104 -26.7083
ltibia 30.6549
lfoot -2.67398 0.316338
ltoes 2.46653
207
root 9.42636 16.8819 10.2728 5.52886 -5.59989 1.58408
lowerback -4.70767 2.54515 -4.16636
upperback -1.37323 3.5803 0.307691
thorax 0.946364 1.79142 2.83489
lowerneck -23.5665 -4.21701 -12.7355
upperneck 26.1258 -4.89768 12.0295
head 13.3753 -1.81212 6.06197
rclavicle -2.76652e-014 3.37934e-015
rhumerus -26.0717 19.592 -86.4791
rradius 44.1588
rwrist -21.5403
rhand -32.0227 -29.4182
rfingers 7.12502
rthumb -5.27062 -59.3327
lclavicle -2.76652e-014 3.37934e-015
lhumerus -51.1126 16.1492 66.6434
lradius 5.05608
lwrist -29.908
lhand -12.8606 -21.7686
lfingers 7.12502
lthumb 13.2275 7.79177
rfemur 4.08401 -3.84707 16.0942
rtibia 47.351
rfoot 21.4166 -1.84088
rtoes -7.76181
lfemur -32.4229 7.65892 -27.5485
ltibia 29.868
lfoot -3.27512 0.596031
ltoes 2.773
208
root 9.44799 16.9376 10.4729 5.43473 -5.97312 2.22134
lowerback -4.55168 2.50119 -4.71133
upperback -1.46049 3.53841 0.154417
thorax 0.748703 1.77681 2.96792
lowerneck -23.5298 -4.03937 -12.5572
upperneck 26.3163 -4.66146 11.8183
head 13.3959 -1.72135 5.99607
rclavicle 7.12177e-014 -7.15625e-015
rhumerus -26.4176 19.523 -86.9572
rradius 43.1992
rwrist -21.5853
rhand -32.1624 -29.4667
rfingers 7.12502
rthumb -5.40552 -59.3777
lclavicle 7.12177e-014 -7.15625e-015
lhumerus -50.7697 16.5583 66.7539
lradius 5.87159
lwrist -30.3212
lhand -12.8599 -21.9449
lfingers 7.12502
lthumb 13.2283 7.61537
rfemur 1.57698 -4.40267 15.246
rtibia 51.0467
rfoot 21.3739 -1.91349
rtoes -16.6147
lfemur -31.0396 7.9246 -28.2792
ltibia 28.9468
lfoot -3.83773 0.63864
ltoes 3.30669
209
root 9.4616 16.9866 10.667 5.40475 -6.34793 2.91482
lowerback -4.47923 2.48751 -5.37413
upperback -1.53357 3.5445 -0.0252766
thorax 0.602428 1.78576 3.14608
lowerneck -23.5401 -3.88566 -12.4343
upperneck 26.5045 -4.45019 11.6665
head 13.4339 -1.6383 5.96066
rclavicle -9.08508e-016 -1.09332e-014
rhumerus -26.6558 19.4709 -87.3721
rradius 42.1426
rwrist -21.7089
rhand -32.2099 -28.8695
rfingers 7.12502
rthumb -5.4514 -58.7793
lclavicle -9.08508e-016 -1.09332e-014
lhumerus -50.3558 16.8502 66.8903
lradius 6.75558
lwrist -30.7231
lhand -12.4649 -22.1651
lfingers 7.12502
lthumb 13.609 7.3701
rfemur -0.323651 -4.20565 14.4255
rtibia 54.416
rfoot 19.5207 -6.1012
rtoes -11.3146
lfemur -29.8073 8.32352 -29.0868
ltibia 28.0412
lfoot -4.19634 0.507695
ltoes 3.94629
210
root 9.47411 17.0441 10.8469 5.5165 -6.42262 3.23211
lowerback -4.47886 2.37951 -5.55822
upperback -1.57306 3.40844 -0.154891
thorax 0.571082 1.71937 3.10891
lowerneck -23.6563 -3.73616 -12.3874
upperneck 26.6751 -4.24762 11.6633
head 13.4952 -1.5447 5.99986
rclavicle -1.3522e-014 -1.23246e-014
rhumerus -26.7215 19.2611 -87.8115
rradius 41.0344
rwrist -21.5585
rhand -31.8503 -28.9751
rfingers 7.12502
rthumb -5.10415 -58.8936
lclavicle -1.3522e-014 -1.23246e-014
lhumerus -49.4966 17.3834 67.1401
lradius 7.08848
lwrist -30.8439
lhand -12.8661 -22.5429
lfingers 7.12502
lthumb 13.2223 7.01774
rfemur -2.79041 -4.43015 14.3018
rtibia 57.5461
rfoot 18.168 -8.06253
rtoes -13.3389
lfemur -28.721 8.35303 -29.4337
ltibia 27.1665
lfoot -4.51274 0.495476
ltoes 4.14861
211
root 9.49226 17.0885 11.0242 5.61121 -6.26953 3.06447
lowerback -4.54702 2.21932 -5.14372
upperback -1.48297 3.18443 -0.15048
thorax 0.74646 1.59997 2.88016
lowerneck -23.7259 -3.58098 -12.2376
upperneck 26.5968 -4.03507 11.567
head 13.4364 -1.44575 5.96771
rclavicle 5.889e-015 1.05356e-014
rhumerus -26.6994 18.7042 -88.1044
rradius 40.0412
rwrist -20.7389
rhand -31.6316 -30.8958
rfingers 7.12502
rthumb -4.89306 -60.8193
lclavicle 5.889e-015 1.05356e-014
lhumerus -48.3832 18.0429 67.4812
lradius 7.3685
lwrist -31.0085
lhand -13.4785 -23.093
lfingers 7.12502
lthumb 12.6319 6.50502
rfemur -4.9382 -4.70833 14.7735
rtibia 60.1754
rfoot 16.2617 -10.1285
rtoes -12.544
lfemur -27.7193 8.31626 -29.2843
ltibia 26.5227
lfoot -5.0073 0.381795
ltoes 2.56662
212
root 9.50816 17.1328 11.2096 5.76546 -6.32994 2.51339
lowerback -4.646 2.17896 -4.41741
upperback -1.48025 3.10223 -0.00512103
thorax 0.843339 1.55587 2.62608
lowerneck -23.6926 -3.46271 -11.99
upperneck 26.5935 -3.87471 11.2853
head 13.3895 -1.38774 5.83432
rclavicle 1.24303e-014 9.93923e-015
rhumerus -26.8846 18.0558 -88.3168
rradius 38.9875
rwrist -19.7473
rhand -31.7983 -32.2016
rfingers 7.12502
rthumb -5.054 -62.1214
lclavicle 1.24303e-014 9.93923e-015
lhumerus -47.4215 18.5395 67.8456
lradius 7.88545
lwrist -31.6342
lhand -13.6165 -23.6517
lfingers 7.12502
lthumb 12.4988 5.95447
rfemur -6.9124 -4.54345 15.6758
rtibia 62.3523
rfoot 13.7444 -12.204
rtoes -9.3986
lfemur -26.7926 8.7079 -28.7805
ltibia 25.9066
lfoot -5.45562 0.134258
ltoes 0.923078
213
root 9.51652 17.1831 11.3904 5.91512 -6.59709 1.90803
lowerback -4.51774 2.17208 -3.76188
upperback -1.72116 3.05088 0.170919
thorax 0.553336 1.53928 2.42637
lowerneck -23.3871 -3.25314 -11.6414
upperneck 26.8796 -3.64459 10.9116
head 13.3924 -1.31133 5.67099
rclavicle -2.89542e-014 -2.8625e-014
rhumerus -27.4207 17.893 -88.7551
rradius 37.8454
rwrist -19.3022
rhand -30.6458 -31.8552
rfingers 7.12502
rthumb -3.94114 -61.7985
lclavicle -2.89542e-014 -2.8625e-014
lhumerus -46.8763 18.9578 67.9994
lradius 8.4467
lwrist -32.2346
lhand -13.4732 -24.1732
lfingers 7.12502
lthumb 12.637 5.42453
rfemur -8.86157 -4.07398 16.6772
rtibia 64.1325
rfoot 11.367 -14.1227
rtoes -5.71894
lfemur -25.9229 9.15109 -28.1407
ltibia 25.3851
lfoot -5.82939 0.0730032
ltoes 2.36542
214
root 9.52573 17.2398 11.58 5.77022 -6.68771 1.68033
lowerback -4.32342 2.05465 -3.47953
upperback -1.76958 2.87305 0.298469
thorax 0.415215 1.45314 2.38266
lowerneck -23.1893 -3.10444 -11.6734
upperneck 27.1415 -3.43626 10.8481
head 13.4281 -1.24068 5.69991
rclavicle 1.37969e-014 -1.88845e-014
rhumerus -27.7905 18.058 -89.1218
rradius 36.7538
rwrist -19.2477
rhand -28.1884 -31.0701
rfingers 7.12502
rthumb -1.56783 -61.0441
lclavicle 1.37969e-014 -1.88845e-014
lhumerus -46.1901 19.5077 68.162
lradius 8.92192
lwrist -32.3107
lhand -13.2239 -24.6104
lfingers 7.12502
lthumb 12.8773 4.97237
rfemur -10.5246 -4.09555 17.2169
rtibia 65.6164
rfoot 9.92531 -14.8441
rtoes -6.73767
lfemur -24.6417 9.2844 -27.8138
ltibia 24.8094
lfoot -6.35405 0.0699169
ltoes 4.35836
215
root 9.54061 17.293 11.7748 5.58703 -6.46464 1.47336
lowerback -4.28873 1.83429 -3.20444
upperback -1.63004 2.56769 0.505678
thorax 0.562535 1.29562 2.43164
lowerneck -23.3054 -3.04377 -12.0022
upperneck 27.3711 -3.25569 10.9617
head 13.5303 -1.18356 5.85305
rclavicle -1.10077e-014 -1.05356e-014
rhumerus -28.0149 18.0856 -89.2376
rradius 35.7779
rwrist -18.9021
rhand -26.9303 -30.2331
rfingers 7.12502
rthumb -0.352723 -60.2125
lclavicle -1.10077e-014 -1.05356e-014
lhumerus -45.1918 20.1935 68.536
lradius 9.34487
lwrist -32.5834
lhand -12.8847 -24.7481
lfingers 7.12502
lthumb 13.2043 4.8137
rfemur -11.9782 -4.3122 17.7562
rtibia 66.8588
rfoot 8.55474 -15.1873
rtoes -9.29259
lfemur -23.1437 9.11558 -27.5005
ltibia 23.9261
lfoot -6.7096 0.0382771
ltoes 5.63306
